<?xml version="1.0" encoding="utf-8"?>
<!-- Generator: Adobe Illustrator 25.3.1, SVG Export Plug-In . SVG Version: 6.00 Build 0)  -->
<svg version="1.1" id="Layer_1" xmlns="http://www.w3.org/2000/svg" xmlns:xlink="http://www.w3.org/1999/xlink" x="0px" y="0px"
	 viewBox="0 0 50 50" style="enable-background:new 0 0 50 50;" xml:space="preserve">
<style type="text/css">
	.st0{fill:#FFFFFF;}
</style>
<path class="st0" d="M17.5,25c0.6,0.6,1.1,1.1,1.6,1.6l17.6,17.6c0.7,0.5,1,1.4,0.7,2.3c-0.3,1.1-1.4,1.7-2.5,1.4
	c-0.3-0.1-0.5-0.2-0.8-0.4c-0.2-0.2-0.4-0.3-0.5-0.5L13.4,26.8c-1.3-1.3-1.3-2.3,0-3.6C20.2,16.5,26.9,9.7,33.7,3
	c0.4-0.4,0.9-0.7,1.4-0.8c0.8-0.2,1.7,0.2,2.1,1c0.4,0.7,0.4,1.6-0.1,2.3c-0.2,0.2-0.4,0.4-0.6,0.6c-6.1,6.1-12.2,12.3-18.4,18.4
	C17.9,24.6,17.7,24.8,17.5,25z"/>
</svg>
