<?xml version="1.0" encoding="utf-8"?>
<!-- Generator: Adobe Illustrator 25.3.1, SVG Export Plug-In . SVG Version: 6.00 Build 0)  -->
<svg version="1.1" id="Layer_1" xmlns="http://www.w3.org/2000/svg" xmlns:xlink="http://www.w3.org/1999/xlink" x="0px" y="0px"
	 viewBox="0 0 50 50" style="enable-background:new 0 0 50 50;" xml:space="preserve">
<style type="text/css">
	.st0{fill:#FFFFFF;}
</style>
<path class="st0" d="M32.5,25c-0.6,0.6-1.1,1.1-1.6,1.6L13.3,44.1c-0.7,0.5-1,1.4-0.7,2.3c0.3,1.1,1.4,1.7,2.5,1.4
	c0.3-0.1,0.5-0.2,0.8-0.4c0.2-0.2,0.4-0.3,0.5-0.5c6.7-6.7,13.4-13.4,20.1-20.2c1.3-1.3,1.3-2.3,0-3.6C29.8,16.5,23.1,9.7,16.3,3
	c-0.4-0.4-0.9-0.7-1.4-0.8c-0.8-0.2-1.7,0.2-2.1,1c-0.4,0.7-0.4,1.6,0.1,2.3c0.2,0.2,0.4,0.4,0.6,0.6c6.1,6.1,12.2,12.3,18.4,18.4
	C32.1,24.6,32.3,24.8,32.5,25z"/>
</svg>
